<?xml version="1.0" encoding="UTF-8"?>
<svg id="Layer_2" data-name="Layer 2" xmlns="http://www.w3.org/2000/svg" viewBox="0 0 7.11 8.05">
  <defs>
    <style>
      .cls-1 {
        fill: #ce354e;
        stroke-width: 0px;
      }
    </style>
  </defs>
  <g id="Layer_1-2" data-name="Layer 1">
    <polygon class="cls-1" points=".98 1.51 .79 1.56 .76 1.53 .88 1.41 .98 1.51"/>
    <polygon class="cls-1" points="5.22 4.94 5.21 4.95 5.19 4.94 5.22 4.94"/>
    <polygon class="cls-1" points="3.95 4.94 3.94 4.95 3.92 4.94 3.95 4.94"/>
    <polygon class="cls-1" points="2.66 4.94 2.65 4.95 2.63 4.94 2.66 4.94"/>
    <polygon class="cls-1" points="2.21 1.16 2.03 1.22 1.99 1.18 2.11 1.06 2.21 1.16"/>
    <path class="cls-1" d="M1,3.34l5.88-1.66-.32-1.11c-.06-.2-.19-.37-.37-.47-.18-.1-.39-.13-.59-.07l-1.13.32h-.03S.57,1.45.57,1.45C.15,1.57-.09,2,.03,2.41l.29,1.02v3.84c0,.43.35.78.78.78h5.23c.43,0,.78-.35.78-.78v-3.93H1ZM5.91,3.51l-.79,1.26h-1.07l.79-1.26h-.01s1.08,0,1.08,0ZM4.64,3.51l-.79,1.26h-1.09l.79-1.26h-.01s1.1,0,1.1,0ZM3.35,3.51l-.79,1.26h-1.01l.79-1.26h1.01ZM2.14,3.51l-.79,1.26H.49v-1.26h1.66ZM5.64.19c.16-.04.32-.03.47.05.14.08.25.21.29.37l.27.95-.73.2-1.33-1.29,1.03-.29ZM4.42.54l1.33,1.29-1.01.29-1.34-1.29,1.01-.29ZM3.23.88l1.33,1.29-1.01.29-1.34-1.29,1.01-.29ZM2.03,1.22l1.33,1.29-1.04.3L.98,1.51l1.05-.3ZM.19,2.37c-.09-.33.1-.66.42-.76l.18-.05,1.34,1.28-1.67.47-.27-.95ZM6.94,7.27c0,.34-.28.61-.61.61H1.1c-.34,0-.61-.27-.61-.61v-2.33h6.45v2.33ZM6.94,4.77h-1.62l.79-1.26h-.01s.84,0,.84,0v1.26Z"/>
    <path class="cls-1" d="M3.3,7.3s-.03,0-.04-.01c-.03-.01-.04-.04-.04-.07l-.02-1.57s.01-.06.04-.07c.03-.02.06-.02.08,0l1.42.76s.04.04.04.07-.02.06-.04.07l-1.4.8s-.03.01-.04.01ZM3.36,5.79l.02,1.28,1.15-.66-1.16-.62Z"/>
  </g>
</svg>